<svg width="18" height="18" viewBox="0 0 18 18" fill="none" xmlns="http://www.w3.org/2000/svg">
<path id="Vector" d="M17.1782 13.0602C16.4317 12.2932 14.3098 10.8562 12.9191 10.8562C12.5969 10.8562 12.3157 10.9278 12.0857 11.0761C11.4056 11.5108 10.8637 11.8483 10.6029 11.8483C10.4597 11.8483 10.3063 11.7205 9.96888 11.429L9.91264 11.3778C8.97697 10.5648 8.77756 10.3551 8.41454 9.97671L8.32251 9.87955C8.25604 9.81307 8.1998 9.75171 8.14356 9.69546C7.82655 9.36818 7.59647 9.13296 6.78351 8.2125L6.74772 8.17159C6.35913 7.73182 6.10348 7.44546 6.08815 7.2358C6.07281 7.03125 6.25176 6.69886 6.70681 6.08011C7.25901 5.33352 7.27947 4.41307 6.77328 3.34432C6.36936 2.50057 5.70979 1.69261 5.12691 0.981818L5.07578 0.920455C4.57471 0.306818 3.99183 0 3.34248 0C2.62156 0 2.02334 0.388636 1.70634 0.593182C1.68077 0.608523 1.65521 0.628977 1.62964 0.644318C0.91894 1.09432 0.402531 1.71307 0.208238 2.34205C-0.0832009 3.28807 -0.277493 4.51534 1.11835 7.06705C2.325 9.27614 3.41918 10.7591 5.15759 12.5438C6.79373 14.221 7.51977 14.7631 9.1457 15.9392C10.9557 17.2483 12.6941 18 13.911 18C15.0409 18 15.9306 18 17.1986 16.471C18.528 14.8653 17.9758 13.8835 17.1782 13.0602Z" fill="#191919"/>
</svg>
