<svg width="158" height="26" viewBox="0 0 158 26" fill="none" xmlns="http://www.w3.org/2000/svg">
<g id="&#237;&#152;&#149;&#234;&#180;&#145;&#237;&#142;&#156;" clip-path="url(#clip0_1516_10047)">
<path id="Vector" opacity="0.7" d="M35.4103 16.2587C32.3472 14.5023 11.5922 16.7094 10.219 16.2587C8.95156 15.6 10.3115 3.57071 11.3809 1.7796C11.7638 1.14404 12.2259 1.02849 13.3349 1.29427C14.6552 1.68716 31.0533 0.808933 37.3512 0.508488C37.6548 0.878266 38.513 -0.369734 38.6847 0.0809329C39.0543 0.797377 71.5205 0.242711 78.4388 0.3236C80.3136 0.346711 78.8085 1.01693 81.0134 0.808933C85.7137 0.381377 95.9064 1.40982 99.4712 0.936044C102.336 0.554711 102.944 0.566266 105.65 1.14404C108.04 1.65249 123.21 2.0916 124.979 1.39827C125.415 1.20182 125.719 1.30582 125.705 1.5716C125.983 1.61782 127.039 1.73338 127.329 1.75649C127.554 1.7796 136.096 2.64627 136.123 2.84271C136.175 3.12004 136.479 3.27027 136.796 3.10849C137.364 2.85427 148.533 2.84271 148.639 3.64004C148.943 5.90493 146.474 15.1725 144.995 17.3565C143.45 19.6676 136.69 16.3049 130.762 17.3218C100.897 15.1956 104.145 15.6347 98.3225 16.2587C97.702 15.4267 95.1142 17.2756 93.6354 15.808C93.0281 15.2072 88.4731 14.9298 87.4433 15.4729C87.0076 15.704 80.9738 15.2649 74.742 15.0338C68.5102 14.8027 62.0803 14.7796 60.8921 15.5538C56.2314 14.0169 37.9321 16.0392 35.3971 16.224L35.4103 16.2587Z" fill="#FEEF38"/>
<path id="Vector_2" opacity="0.7" d="M29.4162 26.0001C26.1683 24.2552 2.15208 25.5147 0.409284 24.9369C-0.990232 24.2205 1.54474 12.2836 2.89144 10.5387C3.36675 9.91472 3.90807 9.83383 5.12275 10.1574C7.06358 10.7814 29.7199 10.3654 32.2153 10.3076C32.5453 10.6889 33.5488 9.4525 33.7336 9.91472C34.3673 11.1049 77.2242 10.1805 78.5445 10.1805C80.657 10.1689 78.9802 10.8623 81.4623 10.5965C86.7435 10.0534 98.2829 10.7236 102.27 10.0649C105.479 9.53339 106.152 9.54494 109.241 9.9725C112.384 10.4001 129.138 9.85694 131 8.95561C131.462 8.73605 131.818 8.80539 131.832 9.07116C132.03 9.08272 143.635 9.31383 143.675 9.47561C143.767 9.74139 144.137 9.8685 144.467 9.68361C145.074 9.41783 157.577 8.29694 157.815 9.07116C158.475 11.2898 157.036 20.7423 155.65 23.0649C154.198 25.5263 145.919 22.8454 139.331 24.3592C103.181 24.6249 111.275 24.1512 101.94 25.4223C101.174 24.6249 98.3093 26.5894 96.5137 25.1796C95.7744 24.6018 90.5328 24.5094 89.3709 25.0872C88.3675 25.5841 61.5391 24.1049 58.7796 25.6418C53.8813 24.2321 33.9977 25.7921 29.3766 26.0001H29.4162Z" fill="#FEEF38"/>
</g>
<defs>
<clipPath id="clip0_1516_10047">
<rect width="158" height="26" fill="white"/>
</clipPath>
</defs>
</svg>
